<svg xmlns="http://www.w3.org/2000/svg" width="40.036" height="50.007" viewBox="0 0 40.036 50.007"><defs><style>.a{fill:#efb718;}</style></defs><g transform="translate(-60 -708)"><g transform="translate(60 708)"><path class="a" d="M22.712,33.612v1.768H20.124a.794.794,0,1,0,0,1.588h9.12a.794.794,0,1,0,0-1.588H26.67l.013-1.857a2.322,2.322,0,0,0,1.063-.858,2.375,2.375,0,0,0-1.729-3.7,2.427,2.427,0,0,0-1.345.269,2.367,2.367,0,0,0-3.1.794,2.383,2.383,0,0,0,.026,2.639A3.486,3.486,0,0,0,22.712,33.612Zm.218-2.69a.753.753,0,0,1,.576-.359.711.711,0,0,1,.615.218.8.8,0,0,0,1.127,0,.738.738,0,0,1,.615-.218.776.776,0,0,1,.564,1.2.824.824,0,0,1-.346.282,1.7,1.7,0,0,0-1.038,1.576v1.768H24.3V33.624a1.671,1.671,0,0,0-1.038-1.576.739.739,0,0,1-.346-.282A.832.832,0,0,1,22.929,30.922Z" transform="translate(5.434 8.134)"/><path class="a" d="M13.331,11.91H10.974a.794.794,0,0,0,0,1.588h2.357a.794.794,0,1,0,0-1.588Z" transform="translate(2.863 3.346)"/><path class="a" d="M21.411,11.91H19.054a.794.794,0,1,0,0,1.588h2.357a.8.8,0,0,0,.794-.794A.782.782,0,0,0,21.411,11.91Z" transform="translate(5.133 3.346)"/><path class="a" d="M17.216,16.366a1.447,1.447,0,0,1-1.114.576,1.339,1.339,0,0,1-.961-.551.8.8,0,1,0-1.319.909,2.963,2.963,0,0,0,2.19,1.242h.154a2.981,2.981,0,0,0,2.37-1.281.8.8,0,0,0-1.319-.9Z" transform="translate(3.846 4.5)"/><path class="a" d="M37.66,20.059A49.351,49.351,0,0,1,33.343,9.325C31.909,3.843,27.387,0,22.34,0H17.716C12.669,0,8.135,3.83,6.7,9.325A49.778,49.778,0,0,1,2.37,20.072L.09,24.389a.8.8,0,0,0,.436,1.127l3.164,1.14a11.812,11.812,0,0,0,3.984.769A7.75,7.75,0,0,0,12.8,25.542a9.216,9.216,0,0,0,1.5,1.319v3.228l-7.839.781A5.947,5.947,0,0,0,.782,36.609v7.66a5.746,5.746,0,0,0,5.739,5.739H33.51a5.746,5.746,0,0,0,5.739-5.739v-7.66c0-2.946-2.318-5.3-5.662-5.739l-7.839-.794V26.848a9.309,9.309,0,0,0,1.511-1.332c2.459,2.062,5.444,2.447,9.146,1.114l3.1-1.114a.769.769,0,0,0,.474-.461.807.807,0,0,0-.038-.666Zm-4.253,12.4c2.049.269,4.24,1.678,4.24,4.15v7.66a4.144,4.144,0,0,1-4.137,4.137H6.534A4.144,4.144,0,0,1,2.4,44.269v-7.66a4.317,4.317,0,0,1,4.227-4.15l8.031-.82,4.675,8.633a.8.8,0,0,0,1.409,0l4.675-8.633Zm-9.248-1.87-4.137,7.634-4.137-7.634V27.758a9.456,9.456,0,0,0,3.856.82H20.3a9.456,9.456,0,0,0,3.856-.82ZM20.3,26.976H19.74a7.9,7.9,0,0,1-7.891-7.891v-5.3a7.86,7.86,0,0,1,7.557-7.878,8.377,8.377,0,0,1,2.6,2.677,9.954,9.954,0,0,0,6.136,4.534c.013.218.051.436.051.653v5.3A7.9,7.9,0,0,1,20.3,26.976Zm15.512-1.832c-3.164,1.14-5.521.845-7.557-.884A9.372,9.372,0,0,0,29.8,19.1V13.8c0-.128-.026-.269-.026-.4.295.026.576.051.871.051a.777.777,0,0,0,.769-.794.832.832,0,0,0-.833-.794,8.44,8.44,0,0,1-7.186-4.073,9.821,9.821,0,0,0-3.151-3.215.657.657,0,0,0-.295-.192,9.9,9.9,0,0,0-5.124-1.435h-.615a.794.794,0,0,0,0,1.588h.615a8.272,8.272,0,0,1,1.947.243,9.48,9.48,0,0,0-6.52,9.018v5.3a9.373,9.373,0,0,0,1.537,5.162C9.749,26,7.379,26.285,4.164,25.132l-2.229-.807,1.857-3.51A51.735,51.735,0,0,0,8.25,9.722C9.492,4.932,13.386,1.6,17.7,1.6h4.624c4.317,0,8.211,3.343,9.453,8.134a51.252,51.252,0,0,0,4.458,11.08l1.857,3.51Z" transform="translate(0.003)"/><path class="a" d="M11.071,32.432H9.713V31.074a.794.794,0,0,0-1.588,0v1.358H6.754a.794.794,0,0,0,0,1.588H8.112v1.358a.794.794,0,0,0,1.588,0V34.02h1.358a.8.8,0,0,0,.794-.794A.779.779,0,0,0,11.071,32.432Z" transform="translate(1.678 8.506)"/></g></g></svg>