<svg xmlns="http://www.w3.org/2000/svg" width="47.952" height="53.327" viewBox="0 0 47.952 53.327"><defs><style>.a{fill:#efb718;}</style></defs><g transform="translate(-0.022)"><path class="a" d="M477.773,239.34a1.763,1.763,0,1,0,1.763,1.763A1.765,1.765,0,0,0,477.773,239.34Zm0,2.35a.587.587,0,1,1,.587-.587A.588.588,0,0,1,477.773,241.69Z" transform="translate(-438.227 -220.352)"/><path class="a" d="M46.7,21.647c-.021-.079-.042-.157-.063-.236a.588.588,0,0,0-.308-1.092,33.787,33.787,0,0,0-3.085-7.255A28.451,28.451,0,0,0,40.7,9.358,7.588,7.588,0,0,0,43.274,5.5,7.861,7.861,0,0,0,42.5.424a.588.588,0,0,0-.844-.2A7.857,7.857,0,0,0,38.661,4.4a6.544,6.544,0,0,0-.037,2.683,25.856,25.856,0,0,0-2.143-1.87,7.827,7.827,0,0,0-2.927-4.172,7.86,7.86,0,0,0-5.046-.96.588.588,0,0,0-.472.728A7.858,7.858,0,0,0,30.974,5.02a7.263,7.263,0,0,0,3.9,1.039c.3,0,.548-.014.741-.031a25.135,25.135,0,0,1,4.562,4.566,6.393,6.393,0,0,0-2.3-.635A7.868,7.868,0,0,0,33,11.556a.589.589,0,0,0-.061.866,7.86,7.86,0,0,0,4.609,2.269c.132.01.264.013.394.013a7.834,7.834,0,0,0,4.115-1.346c.055.092.11.182.163.275a32.139,32.139,0,0,1,2.719,6.157,8.658,8.658,0,0,1-.888-.95,5.626,5.626,0,0,0-4.416-2.484c-3.1-.114-5.273,2.322-7.438,6.133-1.433-3.588-3.439-5.87-6.247-7.131a15.548,15.548,0,0,0-4.562-1.174c-1.606-.2-3.305-.257-5.1-.32-4.636-.162-9.891-.345-15.419-3.02a.588.588,0,0,0-.839.608,55.865,55.865,0,0,0,1.791,8.474.219.219,0,0,0,.006.021q.377,1.257.808,2.438a30.921,30.921,0,0,0,4.72,8.693,22.275,22.275,0,0,0,1.58,1.779l0,0a19.018,19.018,0,0,0,5.424,3.875,19.332,19.332,0,0,0,7.935,1.78c-3,2.719-6.889,3.012-11.323,3.346q-.7.052-1.411.109a.587.587,0,0,0-.539.54c-.256,3.295,1.53,6.566,4.778,8.752a11.537,11.537,0,0,0,6.31,2.063,7.27,7.27,0,0,0,3.262-.719.588.588,0,0,0,.324-.543c-.086-3.044.834-5.165,2.9-6.677,1.852-1.358,4.378-2.033,6.819-2.687,2.548-.681,4.954-1.326,6.584-2.7l.013-.011c5.714-5.105,5.123-9.735,4.691-13.116-.287-2.248-.478-3.751.892-4.839a36.988,36.988,0,0,1,1.2,9.207h0a.587.587,0,0,0,.569.605h.019a.587.587,0,0,0,.587-.57A37.594,37.594,0,0,0,46.7,21.647ZM31.614,4.034a6.275,6.275,0,0,1-2.2-2.852,6.277,6.277,0,0,1,3.5.844,6.279,6.279,0,0,1,2.2,2.852A6.276,6.276,0,0,1,31.614,4.034Zm8.19.638A6.28,6.28,0,0,1,41.76,1.644a6.248,6.248,0,0,1,.371,3.585,6.28,6.28,0,0,1-1.956,3.028A6.249,6.249,0,0,1,39.8,4.672ZM37.63,13.518a6.281,6.281,0,0,1-3.306-1.433,6.275,6.275,0,0,1,3.475-.954A6.281,6.281,0,0,1,41.1,12.564,6.273,6.273,0,0,1,37.63,13.518Zm5.9,13.507c.42,3.295.943,7.395-4.3,12.085-1.43,1.2-3.71,1.814-6.124,2.459-2.547.681-5.18,1.386-7.21,2.874a8.368,8.368,0,0,0-3.381,7.266,7.043,7.043,0,0,1-4,.3,4.95,4.95,0,0,0,1.717-2.094.588.588,0,0,0-1.146-.265,6.47,6.47,0,0,1-2,1.973,11.577,11.577,0,0,1-2.635-1.329,10.874,10.874,0,0,1-2.482-2.274,8.9,8.9,0,0,0,4.93-1.752.588.588,0,0,0-.709-.938,7.893,7.893,0,0,1-5.011,1.514,7.528,7.528,0,0,1-1.01-3.735l.887-.067c5.183-.39,9.659-.727,13.084-4.741a.588.588,0,0,0-.473-.969,17.721,17.721,0,0,1-12.845-4.3,14.911,14.911,0,0,0,4.205-1.237.588.588,0,1,0-.506-1.061,15.168,15.168,0,0,1-1.8.687,8.18,8.18,0,0,1-3.111.457q-.694-.719-1.343-1.529A24.669,24.669,0,0,1,6.4,27.63a12.8,12.8,0,0,0,1.311.068,10.448,10.448,0,0,0,3.61-.576.588.588,0,0,0-.436-1.092,10.536,10.536,0,0,1-5.211.312,36.216,36.216,0,0,1-2.38-5.662,22.336,22.336,0,0,0,5.733.972.588.588,0,0,0,0-1.176A23.12,23.12,0,0,1,2.869,19.32a53.614,53.614,0,0,1-1.526-6.96c5.379,2.347,10.42,2.524,14.9,2.681,3.566.125,6.646.232,9.226,1.391,2.8,1.256,4.724,3.69,6.065,7.66a.588.588,0,0,0,1.076.089c2.606-4.875,4.562-6.739,6.983-6.649A4.467,4.467,0,0,1,43.152,19.6a6.017,6.017,0,0,0,1.676,1.542C42.973,22.646,43.246,24.783,43.532,27.024Z" transform="translate(0 0)"/></g></svg>