<svg xmlns="http://www.w3.org/2000/svg" width="53" height="50" viewBox="0 0 53 50"><defs><style>.a{fill:#efb718;}</style></defs><path class="a" d="M885.027,831.8a3.151,3.151,0,0,0-1.284-2.1l-24.629-17.738a.918.918,0,0,0-1.088.012l-24.7,18.638h0a3.171,3.171,0,0,0,1.5,5.673,3.276,3.276,0,0,0,.44.03,3.178,3.178,0,0,0,1.939-.659l2.361-1.806,4.154,25.613a2.765,2.765,0,0,0,2.745,2.325h3.857a2.774,2.774,0,0,0,2.776-2.727h10.976a2.773,2.773,0,0,0,2.776,2.727h3.906a2.782,2.782,0,0,0,2.73-2.24l5.019-25.792,1.488,1.081a3.219,3.219,0,0,0,4.439-.659A3.139,3.139,0,0,0,885.027,831.8Zm-20.965,25.446H853.094v-8.828a5.848,5.848,0,0,1,1.792-4.184,5.3,5.3,0,0,1,3.87-1.531,5.472,5.472,0,0,1,3.7,1.594,5.4,5.4,0,0,1,1.606,3.857Zm7.621,1.96a.953.953,0,0,1-.935.767h-3.906a.951.951,0,0,1-.952-.947V848.158a7.205,7.205,0,0,0-2.141-5.143,7.3,7.3,0,0,0-4.935-2.126,7.133,7.133,0,0,0-5.2,2.042,7.671,7.671,0,0,0-2.348,5.49v10.609a.951.951,0,0,1-.952.947h-3.857a.947.947,0,0,1-.94-.8L841.207,832.6l17.386-13.3,18.274,13.282Zm11.279-26.115a1.374,1.374,0,0,1-1.9.281l-21.946-15.951a.917.917,0,0,0-1.1.014l-21.937,16.784a1.359,1.359,0,1,1-1.655-2.155l24.162-18.231,24.08,17.343a1.355,1.355,0,0,1,.292,1.916Z" transform="translate(-832.064 -811.795)"/></svg>