<svg xmlns="http://www.w3.org/2000/svg" width="109.695" height="23.217" viewBox="0 0 109.695 23.217"><defs><style>.a{fill:#008bd4;}</style></defs><g transform="translate(-105.65 262.772)"><g transform="translate(105.65 -262.772)"><g transform="translate(28.13)"><path class="a" d="M234.268-256.786a2.709,2.709,0,0,0,1.2-.232.789.789,0,0,0,.476-.771,1.07,1.07,0,0,0-.088-.443.774.774,0,0,0-.282-.338,2.455,2.455,0,0,0-.514-.285c-.209-.092-.475-.2-.79-.322-.251-.1-.495-.2-.719-.3a3.2,3.2,0,0,1-.6-.364,1.4,1.4,0,0,1-.42-.49,1.311,1.311,0,0,1-.162-.693,1.524,1.524,0,0,1,.622-1.263,2.7,2.7,0,0,1,1.708-.483,4.745,4.745,0,0,1,1.144.114,3.485,3.485,0,0,1,.63.192l-.2.721c-.1-.049-.284-.115-.528-.2a3.677,3.677,0,0,0-1.086-.122,2.5,2.5,0,0,0-.543.051,1.435,1.435,0,0,0-.457.181.983.983,0,0,0-.311.295.765.765,0,0,0-.116.448.913.913,0,0,0,.1.449,1.068,1.068,0,0,0,.3.324,3.134,3.134,0,0,0,.495.265c.2.083.426.172.672.268.268.1.515.2.76.308a2.3,2.3,0,0,1,.629.371,1.763,1.763,0,0,1,.45.516,1.592,1.592,0,0,1,.168.764,1.489,1.489,0,0,1-.683,1.322,3.452,3.452,0,0,1-1.874.444,4.883,4.883,0,0,1-1.366-.147c-.312-.1-.524-.167-.626-.215l.231-.727c.014.01.079.039.157.077s.214.076.349.12a4.339,4.339,0,0,0,.541.117A3.934,3.934,0,0,0,234.268-256.786Z" transform="translate(-232.275 262.772)"/><path class="a" d="M255.367-259.427a3.682,3.682,0,0,1,.265-1.466,3.039,3.039,0,0,1,.659-1.052,2.587,2.587,0,0,1,.946-.621,2.9,2.9,0,0,1,1.093-.206A2.593,2.593,0,0,1,260.3-262a3.324,3.324,0,0,1,.743,2.366c0,.07-.013.129-.013.207a1.167,1.167,0,0,1-.019.179h-4.736a2.739,2.739,0,0,0,.609,1.81,2.359,2.359,0,0,0,1.827.632,3.9,3.9,0,0,0,1.1-.127c.257-.081.454-.148.584-.2l.161.689a3.745,3.745,0,0,1-.69.24,4.4,4.4,0,0,1-1.18.128,4.157,4.157,0,0,1-1.511-.239,2.667,2.667,0,0,1-1.035-.7,2.645,2.645,0,0,1-.593-1.058A4.911,4.911,0,0,1,255.367-259.427Zm4.792-.508a2.4,2.4,0,0,0-.482-1.563,1.693,1.693,0,0,0-1.338-.559,1.758,1.758,0,0,0-.811.176,2.03,2.03,0,0,0-.637.459,2.156,2.156,0,0,0-.411.683,2.611,2.611,0,0,0-.179.8Z" transform="translate(-250.237 262.772)"/><path class="a" d="M289.483-256.88a1.5,1.5,0,0,1-.226.143c-.117.056-.245.111-.386.169a3.077,3.077,0,0,1-.529.143,3.309,3.309,0,0,1-.664.053,3.625,3.625,0,0,1-1.132-.173,2.481,2.481,0,0,1-.961-.544,2.746,2.746,0,0,1-.658-.96,3.772,3.772,0,0,1-.247-1.429,3.348,3.348,0,0,1,.223-1.267,3.009,3.009,0,0,1,.623-1.013,2.935,2.935,0,0,1,1.014-.67,3.56,3.56,0,0,1,1.333-.243,7.508,7.508,0,0,1,1.516.121c.378.078.683.152.935.229v5.855a2.435,2.435,0,0,1-.787,2.047,3.777,3.777,0,0,1-2.364.616,6.217,6.217,0,0,1-1.184-.1,7.238,7.238,0,0,1-.908-.209l.173-.735a3.742,3.742,0,0,0,.859.227,5.177,5.177,0,0,0,1.082.109,2.748,2.748,0,0,0,1.74-.441,1.814,1.814,0,0,0,.547-1.507Zm-.008-4.877a4.906,4.906,0,0,0-.579-.129,7.842,7.842,0,0,0-1.005-.051,2.519,2.519,0,0,0-.974.181,2.026,2.026,0,0,0-.72.509,2.054,2.054,0,0,0-.456.781,3.006,3.006,0,0,0-.168,1,2.956,2.956,0,0,0,.188,1.078,2.137,2.137,0,0,0,.479.741,1.742,1.742,0,0,0,.669.421,2.442,2.442,0,0,0,.768.132,3.147,3.147,0,0,0,1.052-.167,2.785,2.785,0,0,0,.745-.369Z" transform="translate(-273.038 262.691)"/><path class="a" d="M322.155-255.88c-.254.067-.6.145-1.019.229a8.348,8.348,0,0,1-1.565.118,3.3,3.3,0,0,1-1.27-.208,2.023,2.023,0,0,1-.825-.593,2.283,2.283,0,0,1-.446-.934,4.589,4.589,0,0,1-.141-1.2v-3.595h.853v3.334a5.721,5.721,0,0,0,.1,1.154,1.767,1.767,0,0,0,.338.761,1.3,1.3,0,0,0,.608.419,2.629,2.629,0,0,0,.906.133,6.634,6.634,0,0,0,1.045-.066,2.526,2.526,0,0,0,.562-.112v-5.624h.851Z" transform="translate(-298.092 262.212)"/><path class="a" d="M350.067-262.669a5.141,5.141,0,0,1,.789.06,2.52,2.52,0,0,1,.519.127l-.17.7a1.659,1.659,0,0,0-.417-.114,5.143,5.143,0,0,0-.854-.055,4.275,4.275,0,0,0-.873.074,2.935,2.935,0,0,0-.449.125v5.621h-.84v-6.119a6.591,6.591,0,0,1,.9-.279A5.87,5.87,0,0,1,350.067-262.669Z" transform="translate(-322.114 262.691)"/><path class="a" d="M371.157-259.411a3.973,3.973,0,0,1-.225,1.375,3.3,3.3,0,0,1-.641,1.053,2.893,2.893,0,0,1-.976.675,3.029,3.029,0,0,1-1.241.245,2.974,2.974,0,0,1-1.237-.245,2.853,2.853,0,0,1-.973-.675,3.025,3.025,0,0,1-.645-1.053,4.043,4.043,0,0,1-.225-1.375,4.1,4.1,0,0,1,.225-1.383,2.934,2.934,0,0,1,.645-1.05,2.671,2.671,0,0,1,.973-.685,2.993,2.993,0,0,1,1.237-.244,3.048,3.048,0,0,1,1.241.244,2.706,2.706,0,0,1,.976.685,3.194,3.194,0,0,1,.641,1.05A4.029,4.029,0,0,1,371.157-259.411Zm-.9,0a2.929,2.929,0,0,0-.59-1.918,1.975,1.975,0,0,0-1.594-.717,1.974,1.974,0,0,0-1.588.717,2.915,2.915,0,0,0-.59,1.918,2.863,2.863,0,0,0,.59,1.9,1.956,1.956,0,0,0,1.588.712,1.956,1.956,0,0,0,1.594-.712A2.877,2.877,0,0,0,370.259-259.411Z" transform="translate(-335.51 262.772)"/><path class="a" d="M397.372-256.786a2.743,2.743,0,0,0,1.214-.232.789.789,0,0,0,.471-.771,1.2,1.2,0,0,0-.083-.443.873.873,0,0,0-.289-.338,2.4,2.4,0,0,0-.515-.285c-.208-.092-.473-.2-.785-.322-.26-.1-.494-.2-.725-.3a3.2,3.2,0,0,1-.593-.364,1.493,1.493,0,0,1-.419-.49,1.3,1.3,0,0,1-.159-.693,1.486,1.486,0,0,1,.621-1.263,2.7,2.7,0,0,1,1.7-.483,4.712,4.712,0,0,1,1.147.114,3.152,3.152,0,0,1,.625.192l-.19.721a5.58,5.58,0,0,0-.532-.2,3.639,3.639,0,0,0-1.083-.122,2.469,2.469,0,0,0-.54.051,1.382,1.382,0,0,0-.456.181.955.955,0,0,0-.314.295.809.809,0,0,0-.117.448.994.994,0,0,0,.1.449,1.189,1.189,0,0,0,.314.324,2.8,2.8,0,0,0,.492.265c.2.083.422.172.675.268s.51.2.749.308a2.394,2.394,0,0,1,.633.371,1.676,1.676,0,0,1,.453.516,1.625,1.625,0,0,1,.163.764,1.475,1.475,0,0,1-.683,1.322,3.4,3.4,0,0,1-1.872.444,4.882,4.882,0,0,1-1.359-.147c-.316-.1-.523-.167-.631-.215l.232-.727c.023.01.073.039.161.077a3.665,3.665,0,0,0,.352.12,3.813,3.813,0,0,0,.525.117A4.173,4.173,0,0,0,397.372-256.786Z" transform="translate(-359.147 262.772)"/></g><g transform="translate(0 0.117)"><path class="a" d="M117.477-262.216c-6.534,0-11.827,5.029-11.827,11.228s5.293,11.228,11.827,11.228,11.832-5.026,11.832-11.228S124.015-262.216,117.477-262.216Zm0,19.157c-5.117,0-10.734-3.549-10.734-7.929s5.617-7.927,10.734-7.927,10.74,3.542,10.74,7.927S122.6-243.059,117.477-243.059Z" transform="translate(-105.65 262.216)"/><g transform="translate(5.852 6.975)"><path class="a" d="M132.083-225.465c-.13-.068-.117-.157.023-.2l10.052-3.46c.131-.043.208.024.151.154l-3.633,9.544c-.053.132-.151.143-.221.01l-2.214-3.726a1.048,1.048,0,0,0-.359-.335Z" transform="translate(-131.993 229.141)"/></g></g><path class="a" d="M551.854-214.561a8.413,8.413,0,0,1-2.314-.292,3.459,3.459,0,0,1-1.412-.768,2.367,2.367,0,0,1-.7-1.184,5.933,5.933,0,0,1-.193-1.578V-231.1l3.278.508v11.587a3.581,3.581,0,0,0,.069.747,1.092,1.092,0,0,0,.256.566,1.287,1.287,0,0,0,.533.379,3.249,3.249,0,0,0,.946.18Z" transform="translate(-449.138 237.779)"/><path class="a" d="M239.231-204.665a4.094,4.094,0,0,0-.4-2.13,1.541,1.541,0,0,0-1.4-.633c-.2,0-.413.012-.64.032s-.432.045-.643.071v8.624h-3.273v-10.743c.285-.078.6-.152.98-.225s.765-.148,1.19-.2.845-.117,1.281-.146.877-.056,1.3-.056a5.652,5.652,0,0,1,2.039.306,4.519,4.519,0,0,1,1.283.712,5.634,5.634,0,0,1,1.616-.743,5.9,5.9,0,0,1,1.687-.275,6.2,6.2,0,0,1,2.281.362,3.441,3.441,0,0,1,1.416,1.038,3.833,3.833,0,0,1,.722,1.578,9.648,9.648,0,0,1,.2,2.053v6.344h-3.272v-5.964a4.027,4.027,0,0,0-.412-2.13,1.539,1.539,0,0,0-1.4-.633,3.531,3.531,0,0,0-.742.124,3.325,3.325,0,0,0-.774.317,4.8,4.8,0,0,1,.2,1.016c.031.354.044.736.044,1.131v6.138h-3.279Z" transform="translate(-204.612 221.188)"/><path class="a" d="M322.139-197.139h-4.924a6.9,6.9,0,0,1-2.456-.374,3.794,3.794,0,0,1-1.547-1.049,4.055,4.055,0,0,1-.809-1.626,8.534,8.534,0,0,1-.241-2.148v-5.76h3.275v5.382a4.351,4.351,0,0,0,.411,2.176,1.71,1.71,0,0,0,1.559.669h1.459V-208.1h3.273Z" transform="translate(-266.286 219.626)"/><path class="a" d="M364.48-208.1H369.4a7.067,7.067,0,0,1,2.458.371,3.822,3.822,0,0,1,1.553,1.062,4.044,4.044,0,0,1,.808,1.619,10.528,10.528,0,0,1,.248,2.334v5.572h-3.286v-5.191a5.1,5.1,0,0,0-.418-2.365,1.675,1.675,0,0,0-1.553-.668h-1.458v8.224H364.48Z" transform="translate(-306.981 219.626)"/><path class="a" d="M474.823-229.25a1.786,1.786,0,0,1-.618,1.438,2.254,2.254,0,0,1-1.472.524,2.189,2.189,0,0,1-1.457-.524,1.76,1.76,0,0,1-.635-1.438,1.75,1.75,0,0,1,.635-1.433,2.155,2.155,0,0,1,1.457-.532,2.217,2.217,0,0,1,1.472.532A1.775,1.775,0,0,1,474.823-229.25Zm-.386,13.868H471.09v-10.849h3.346Z" transform="translate(-389.558 237.869)"/><path class="a" d="M499.328-207.829h-4.413l.658,2.727h3.756c.9-.017,1.764.355,1.764,1.491h-3.2c-2.264,0-4.093,1.494-4.093,3.347s1.83,3.354,4.09,3.354h6.078v-6.737C503.969-206.6,501.666-207.867,499.328-207.829Zm1.731,8.469h-2.527a1.122,1.122,0,0,1-1.209-1.018,1.12,1.12,0,0,1,1.209-1.013h2.527Z" transform="translate(-407.572 219.416)"/><path class="a" d="M421.991-230.181v4.479h-2.154a5.557,5.557,0,0,0-5.663,5.444,5.556,5.556,0,0,0,5.666,5.43h5.634v-15.708Zm0,12.735h-1.835a2.7,2.7,0,0,1-2.672-2.733,2.7,2.7,0,0,1,2.672-2.734h1.835Z" transform="translate(-345.634 237.334)"/></g><g transform="translate(210.156 -256.118)"><g transform="translate(1.553 1.061)"><path class="a" d="M584.709-223.441c-.1-.2-.192-.383-.3-.556a3.782,3.782,0,0,0-.289-.411H583.7v.967h-.64v-2.643a4.044,4.044,0,0,1,.465-.077c.155-.013.29-.023.407-.023a1.675,1.675,0,0,1,.952.223.754.754,0,0,1,.325.681.744.744,0,0,1-.12.432.861.861,0,0,1-.364.285c.105.141.214.3.329.486a6.344,6.344,0,0,1,.344.636Zm-1-1.461h.223a1.293,1.293,0,0,0,.464-.072.305.305,0,0,0,.18-.315.287.287,0,0,0-.164-.279.856.856,0,0,0-.421-.089h-.131a.776.776,0,0,0-.152.015Z" transform="translate(-583.064 226.184)"/></g><path class="a" d="M578.661-226.289a2.527,2.527,0,0,1-2.586-2.459,2.533,2.533,0,0,1,2.586-2.467,2.542,2.542,0,0,1,2.6,2.467A2.536,2.536,0,0,1,578.661-226.289Zm0-4.506a2.106,2.106,0,0,0-2.145,2.047,2.106,2.106,0,0,0,2.145,2.046,2.105,2.105,0,0,0,2.159-2.046A2.105,2.105,0,0,0,578.661-230.795Z" transform="translate(-576.075 231.215)"/></g></g></svg>